<?xml version="1.0" standalone="no"?><!DOCTYPE svg PUBLIC "-//W3C//DTD SVG 1.1//EN" "http://www.w3.org/Graphics/SVG/1.1/DTD/svg11.dtd"><svg t="1658885627451" class="icon" viewBox="0 0 1024 1024" version="1.1" xmlns="http://www.w3.org/2000/svg" p-id="10139" xmlns:xlink="http://www.w3.org/1999/xlink" width="200" height="200"><defs><style type="text/css">@font-face { font-family: feedback-iconfont; src: url("//at.alicdn.com/t/font_1031158_u69w8yhxdu.woff2?t=1630033759944") format("woff2"), url("//at.alicdn.com/t/font_1031158_u69w8yhxdu.woff?t=1630033759944") format("woff"), url("//at.alicdn.com/t/font_1031158_u69w8yhxdu.ttf?t=1630033759944") format("truetype"); }
</style></defs><path d="M512 991.738V591.762l415.992-240.024v400.016L512 991.738z" fill="#BDC3C7" p-id="10140"></path><path d="M95.968 351.738L512 591.762v399.976L95.968 751.754V351.738z" fill="#ECF0F1" p-id="10141"></path><path d="M95.968 367.762L512 127.738l415.992 240.024L512 607.746 95.968 367.762z" fill="#998675" p-id="10142"></path><path d="M95.968 351.738L512 111.754l415.992 239.984L512 591.762 95.968 351.738z" fill="#998675" p-id="10143"></path><path d="M664.524 199.762l263.468 151.976L512 591.762V287.73l152.524-87.968z" fill="#736357" p-id="10144"></path><path d="M512 367.762v150.148l-288.008-166.172v-150.148L512 367.762z" fill="#ECF0F1" p-id="10145"></path><path d="M512 367.762l287.976-166.172v150.148L512 517.91v-150.148z" fill="#BDC3C7" p-id="10146"></path><path d="M512 47.746l291.196 168-291.196 168-291.234-168 291.234-168z" fill="#998675" p-id="10147"></path><path d="M512 31.762l291.196 168-291.196 168-291.234-168 291.234-168z" fill="#736357" p-id="10148"></path><path d="M512 367.762l-291.234-168 28.508-16.43L512 95.738v272.024z" fill="#998675" p-id="10149"></path><path d="M512 95.738V31.762l262.688 151.57L512 95.738z" fill="#534741" p-id="10150"></path><path d="M767.968 844.066l-95.976 55.392v-99.72l95.976-55.382v99.71z" fill="#464646" p-id="10151"></path><path d="M815.992 763.426v-59.664l47.992-27.696v59.664l-47.992 27.696z m0-155.68l47.992-27.696v43.68l-47.992 27.696v-43.68z m0-96.016l47.992-27.656v43.672l-47.992 27.704v-43.72zM736 655.738l47.992-27.696v43.71L736 699.45v-43.712z m0-95.984l47.992-27.696v43.68L736 603.434v-43.68z m-16.024-240.016l47.992-27.696v43.71l-47.992 27.696v-43.71z m-64.008 384.024l48.024-27.696v43.68l-48.024 27.696v-43.68z m0-96.016l48.024-27.696v43.68l-48.024 27.696v-43.68z m-15.984-239.984l47.992-27.696v43.68l-47.992 27.696v-43.68z m-64.008 479.968L624 820.036v59.704l-48.024 27.696v-59.706z m0-95.976L624 724.058v43.68l-48.024 27.696v-43.68z m0-96.016L624 628.042v43.71l-48.024 27.696v-43.71z m-15.984-239.984l47.984-27.696v43.68l-47.984 27.696v-43.68z" fill="#252525" p-id="10152"></path><path d="M159.976 719.746v-43.68l47.992 27.696v43.68l-47.992-27.696z m0-96.016v-43.68l47.992 27.696v43.68l-47.992-27.696z m80 48.024v-43.71L288 655.738v43.71l-48.024-27.694z m79.992 47.992v-43.68l48.024 27.696v43.68l-48.024-27.696zM400 767.738v-43.68l47.992 27.696v43.68L400 767.738z m-160.024 0v-43.68L288 751.754v43.68l-48.024-27.696z m79.992 48.024v-43.718l48.024 27.696v43.718l-48.024-27.696zM400 863.754v-43.718l47.992 27.696v43.718L400 863.754zM159.976 527.746v-43.672l47.992 27.656v43.718l-47.992-27.702z m80 47.992v-43.68L288 559.754v43.68l-48.024-27.696z m79.992 47.992v-43.68l48.024 27.696v43.68l-48.024-27.696zM400 671.754v-43.71l47.992 27.696v43.71L400 671.754z m-144.008-336v-43.71l47.992 27.696v43.71l-47.992-27.696z m80 47.992v-43.68l47.984 27.696v43.68l-47.984-27.696z m79.992 47.992v-43.68l47.992 27.696v43.68l-47.992-27.696z" fill="#464646" p-id="10153"></path><path d="M512 405.91l-288.008-166.172v-38.148L512 367.762v38.148z m0 217.82L95.968 383.746v-32.008L512 591.762v31.968z" fill="#736357" p-id="10154"></path><path d="M512 367.762l287.976-166.172v38.148L512 405.91v-38.148z m415.992 15.984L512 623.73v-31.968l415.992-240.024v32.008z" fill="#534741" p-id="10155"></path></svg>